<?xml version="1.0" ?><svg xmlns="http://www.w3.org/2000/svg" 
viewBox="0 0 1080 170"><path fill="#031A3D" fill-opacity="0.3" d="M0,64L26.7,96C53.3,128,107,192,160,181.3C213.3,171,267,85,320,64C373.3,43,427,85,480,122.7C533.3,160,587,192,640,197.3C693.3,203,747,181,800,165.3C853.3,149,907,139,960,160C1013.3,181,1067,235,1120,250.7C1173.3,267,1227,245,1280,240C1333.3,235,1387,245,1413,250.7L1440,256L1440,320L1413.3,320C1386.7,320,1333,320,1280,320C1226.7,320,1173,320,1120,320C1066.7,320,1013,320,960,320C906.7,320,853,320,800,320C746.7,320,693,320,640,320C586.7,320,533,320,480,320C426.7,320,373,320,320,320C266.7,320,213,320,160,320C106.7,320,53,320,27,320L0,320Z">
</path></svg>