<svg xmlns="http://www.w3.org/2000/svg" viewBox="0 90 1100 50"><path fill="#2c62ce" fill-opacity="0.5" d="M0,160L30,186.7C60,213,120,267,180,250.7C240,235,300,149,360,106.7C420,64,480,64,540,90.7C600,117,660,171,720,186.7C780,203,840,181,900,149.3C960,117,1020,75,1080,85.3C1140,96,1200,160,1260,160C1320,160,1380,96,1410,64L1440,32L1440,0L1410,0C1380,0,1320,0,1260,0C1200,0,1140,0,1080,0C1020,0,960,0,900,0C840,0,780,0,720,0C660,0,600,0,540,0C480,0,420,0,360,0C300,0,240,0,180,0C120,0,60,0,30,0L0,0Z"></path></svg>